<?xml version="1.0" encoding="utf-8"?>
<svg xmlns="http://www.w3.org/2000/svg" xmlns:svg="http://www.w3.org/2000/svg" version="1.1" viewBox="0 0 1400 340">
	<title>The titlepage for the Standard Ebooks edition of McTeague, by Frank Norris</title>
	<g aria-label="MCTEAGUE">
		<path d="m 481.27631,130 h 17.59065 L 491.94298,52.807016 H 473.22953 L 456.10672,97.345029 438.98391,52.807016 H 420.27046 L 413.34649,130 h 17.59064 l 3.64912,-45.754387 h 0.46784 l 15.81286,45.286547 h 10.47954 l 15.81286,-45.286547 h 0.46784 z"/>
		<path d="m 549.06578,114.09357 c -17.68421,0 -25.45029,-12.35088 -25.45029,-22.736846 0,-10.292397 7.76608,-22.643275 25.45029,-22.643275 8.98246,0 15.1579,4.77193 15.1579,4.77193 l 7.48538,-14.97076 c 0,0 -8.60819,-7.111112 -25.35673,-7.111112 -21.89473,0 -41.82456,17.964913 -41.82456,40.140352 0,22.081871 20.02339,39.859651 41.82456,39.859651 16.74854,0 25.35673,-7.11111 25.35673,-7.11111 l -7.48538,-14.97076 c 0,0 -6.17544,4.77193 -15.1579,4.77193 z"/>
		<path d="m 578.66521,68.245613 h 18.33918 V 130 h 17.59064 V 68.245613 h 18.33919 V 52.807016 h -54.26901 z"/>
		<path d="M 688.43275,52.807016 H 644.269 V 130 h 44.16375 v -15.4386 h -26.5731 V 99.029239 h 25.45029 V 83.590642 H 661.85965 V 68.245613 h 26.5731 z"/>
		<path d="m 743.29825,52.807016 h -16.2807 L 695.85965,130 h 18.90059 l 5.7076,-15.4386 h 29.38012 L 755.55556,130 h 18.90059 z m 0.56141,46.31579 h -17.40351 l 8.60818,-22.45614 h 0.18714 z"/>
		<path d="m 852.17691,86.771929 h -35.64912 v 13.567251 h 17.77777 c 0,9.45029 -8.32748,14.87719 -16.74853,14.87719 -10.85381,0 -19.64913,-10.66666 -19.64913,-23.766078 0,-13.380117 8.79532,-24.140352 19.64913,-24.140352 6.8304,0 12.72514,2.713451 17.21637,9.918129 L 846.28217,64.59649 c -6.73684,-8.140351 -16.18713,-13.192983 -29.75438,-13.192983 -21.70761,0 -37.61404,17.871346 -37.61404,40.046785 0,22.081868 16.84211,39.953218 37.61404,39.953218 15.15789,0 31.43859,-8.32749 35.64912,-27.88304 z"/>
		<path d="m 924.18276,52.807016 h -17.59064 v 44.63158 c 0,12.912284 -3.92983,16.654974 -12.53802,16.654974 -8.60818,0 -12.53801,-3.74269 -12.53801,-16.654974 v -44.63158 h -17.59064 v 49.777774 c 0,19.08772 10.47953,28.81872 30.12865,28.81872 19.64913,0 30.12866,-9.731 30.12866,-28.81872 z"/>
		<path d="M 983.65203,52.807016 H 939.48829 V 130 h 44.16374 v -15.4386 h -26.5731 V 99.029239 h 25.45029 V 83.590642 H 957.07893 V 68.245613 h 26.5731 z"/>
	</g>
	<g aria-label="FRANK NORRIS">
		<path d="M 427.70066,232.10526 H 394.22698 V 290 h 13.19298 v -23.22807 h 18.73684 v -11.57895 h -18.73684 v -11.50877 h 20.2807 z"/>
		<path d="M 438.97478,232.10526 V 290 h 13.19299 V 267.12281 L 469.85198,290 h 16.77193 l -19.92983,-23.92982 c 7.08772,-2.24562 11.85965,-8.07018 11.85965,-16.77193 0,-11.36842 -8.14035,-17.19299 -18.87719,-17.19299 z m 13.19299,25.68421 v -15.15789 h 1.54385 c 4.98246,0 10.94737,0.35088 10.94737,7.57895 0,7.22807 -5.96491,7.57894 -10.94737,7.57894 z"/>
		<path d="M 523.67982,232.10526 H 511.4693 L 488.10088,290 h 14.17544 l 4.2807,-11.57895 H 528.5921 L 532.87281,290 h 14.17543 z m 0.42106,34.73685 H 511.04825 L 517.50439,250 h 0.14035 z"/>
		<path d="m 567.43091,254.07018 h 0.14036 L 590.58881,290 h 13.19298 v -57.89474 h -13.19298 v 35.92983 h -0.14035 L 567.43091,232.10526 H 554.23793 V 290 h 13.19298 z"/>
		<path d="m 669.91668,290 -26.94737,-30.45614 23.29824,-27.4386 h -16 L 630.4079,255.75439 V 232.10526 H 617.21492 V 290 H 630.4079 V 265.4386 L 651.74124,290 Z"/>
		<path d="m 714.83225,254.07018 h 0.14035 L 737.99015,290 h 13.19298 v -57.89474 h -13.19298 v 35.92983 h -0.14036 L 714.83225,232.10526 H 701.63927 V 290 h 13.19298 z"/>
		<path d="m 762.01974,261.01754 c 0,16.91228 12.07017,30.03509 29.19298,30.03509 16.63158,0 29.12281,-13.12281 29.12281,-30.03509 0,-16.91228 -13.05264,-29.96491 -29.12281,-29.96491 -15.92983,0 -29.19298,13.05263 -29.19298,29.96491 z m 14.24561,0 c 0,-8.63157 4.77193,-17.26315 14.94737,-17.26315 10.24561,0 14.87719,8.63158 14.87719,17.26315 0,8.63158 -4.35088,17.26316 -14.87719,17.26316 -10.80702,0 -14.94737,-8.63158 -14.94737,-17.26316 z"/>
		<path d="M 831.15679,232.10526 V 290 h 13.19298 V 267.12281 L 862.03398,290 h 16.77193 l -19.92983,-23.92982 c 7.08772,-2.24562 11.85965,-8.07018 11.85965,-16.77193 0,-11.36842 -8.14035,-17.19299 -18.87719,-17.19299 z m 13.19298,25.68421 v -15.15789 h 1.54386 c 4.98245,0 10.94737,0.35088 10.94737,7.57895 0,7.22807 -5.96492,7.57894 -10.94737,7.57894 z"/>
		<path d="M 886.45833,232.10526 V 290 h 13.19298 V 267.12281 L 917.33552,290 h 16.77193 l -19.92982,-23.92982 c 7.08772,-2.24562 11.85965,-8.07018 11.85965,-16.77193 0,-11.36842 -8.14035,-17.19299 -18.8772,-17.19299 z m 13.19298,25.68421 v -15.15789 h 1.54386 c 4.98246,0 10.94737,0.35088 10.94737,7.57895 0,7.22807 -5.96491,7.57894 -10.94737,7.57894 z"/>
		<path d="M 954.95286,232.10526 H 941.75987 V 290 h 13.19299 z"/>
		<path d="m 988.3783,231.05263 c -9.33333,0 -18.87719,6.8772 -18.87719,17.68421 0,6.03509 4.07018,11.4386 11.01754,14.8772 6.8772,3.43859 13.05264,5.33333 13.05264,9.54385 0,5.40351 -5.47369,5.68422 -8.35088,5.68422 -6.45614,0 -14.17544,-6.52632 -14.17544,-6.52632 l -6.59649,11.08772 c 0,0 8.21052,7.64912 21.75438,7.64912 11.29825,0 21.82454,-4.8421 21.82454,-18.66666 0,-7.57895 -7.0877,-13.05264 -13.54383,-15.78948 -6.5965,-2.80702 -12.07018,-5.12281 -12.07018,-8.35088 0,-3.15789 2.38597,-5.19298 6.87719,-5.19298 5.96492,0 11.71932,4 11.71932,4 l 5.3333,-10.52631 c 0,0 -7.43858,-5.47369 -17.9649,-5.47369 z"/>
	</g>
</svg>
